<?xml version="1.0" encoding="UTF-8" standalone="no"?>
<!-- Created with Inkscape (http://www.inkscape.org/) -->

<svg
   xmlns:dc="http://purl.org/dc/elements/1.1/"
   xmlns:cc="http://creativecommons.org/ns#"
   xmlns:rdf="http://www.w3.org/1999/02/22-rdf-syntax-ns#"
   xmlns:svg="http://www.w3.org/2000/svg"
   xmlns="http://www.w3.org/2000/svg"
   xmlns:sodipodi="http://sodipodi.sourceforge.net/DTD/sodipodi-0.dtd"
   xmlns:inkscape="http://www.inkscape.org/namespaces/inkscape"
   width="594mm"
   height="420mm"
   viewBox="0 0 2104.7244 1488.189"
   id="svg4791"
   version="1.1"
   inkscape:version="0.91 r13725"
   sodipodi:docname="Bottom.svg">
  <defs
     id="defs4793" />
  <sodipodi:namedview
     id="base"
     pagecolor="#ffffff"
     bordercolor="#666666"
     borderopacity="1.0"
     inkscape:pageopacity="0.0"
     inkscape:pageshadow="2"
     inkscape:zoom="0.9899495"
     inkscape:cx="408.39411"
     inkscape:cy="908.33674"
     inkscape:document-units="px"
     inkscape:current-layer="layer1"
     showgrid="false"
     inkscape:window-width="1600"
     inkscape:window-height="837"
     inkscape:window-x="-8"
     inkscape:window-y="-8"
     inkscape:window-maximized="1" />
  <metadata
     id="metadata4796">
    <rdf:RDF>
      <cc:Work
         rdf:about="">
        <dc:format>image/svg+xml</dc:format>
        <dc:type
           rdf:resource="http://purl.org/dc/dcmitype/StillImage" />
        <dc:title />
      </cc:Work>
    </rdf:RDF>
  </metadata>
  <g
     inkscape:label="Layer 1"
     inkscape:groupmode="layer"
     id="layer1"
     transform="translate(0,435.82677)">
    <path
       inkscape:connector-curvature="0"
       id="path4157"
       d="m 108.47442,-306.52634 19.92194,0 0,17.71653 14.52756,0 0,-17.71653 21.51642,0 0,17.71653 14.52756,0 0,-17.71653 21.51643,0 0,17.71653 14.52756,0 0,-17.71653 21.51642,0 0,17.71653 14.52756,0 0,-17.71653 21.51643,0 0,17.71653 14.52756,0 0,-17.71653 21.51643,0 0,17.71653 14.52755,0 0,-17.71653 21.51643,0 0,17.71653 14.52756,0 0,-17.71653 21.51643,0 0,17.71653 14.52756,0 0,-17.71653 21.51642,0 0,17.71653 14.52756,0 0,-17.71653 21.51643,0 0,17.71653 14.52756,0 0,-17.71653 21.51643,0 0,17.71653 14.52755,0 0,-17.71653 21.51643,0 0,17.71653 14.52756,0 0,-17.71653 21.51643,0 0,17.71653 14.52756,0 0,-17.71653 21.51642,0 0,17.71653 14.52756,0 0,-17.71653 21.51643,0 0,17.71653 14.52756,0 0,-17.71653 21.51642,0 0,17.71653 14.52756,0 0,-17.71653 21.51643,0 0,17.71653 14.52756,0 0,-17.71653 21.51643,0 0,17.71653 14.52756,0 0,-17.71653 21.51645,0 0,17.71653 14.5275,0 0,-17.71653 21.5164,0 0,17.71653 14.5276,0 0,-17.71653 21.5164,0 0,17.71653 14.5276,0 0,-17.71653 21.5164,0 0,17.71653 14.5275,0 0,-17.71653 21.5165,0 0,17.71653 14.5275,0 0,-17.71653 21.5165,0 0,17.71653 14.5275,0 0,-17.71653 21.5164,0 0,17.71653 14.52757,0 0,-17.71653 21.5164,0 0,17.71653 14.5276,0 0,-17.71653 21.5164,0 0,17.71653 14.5276,0 0,-17.71653 21.5164,0 0,17.71653 14.5277,0 0,-17.71653 19.9219,0"
       style="fill:none;stroke:#000000"
       inkscape:label="part" />
    <path
       inkscape:connector-curvature="0"
       id="path4159"
       d="m 1136.0335,-306.52634 0,20.24347 -17.7165,0 0,14.52756 17.7165,0 0,21.83796 -17.7165,0 0,14.52756 17.7165,0 0,21.83796 -17.7165,0 0,14.52756 17.7165,0 0,21.83796 -17.7165,0 0,14.52756 17.7165,0 0,21.83796 -17.7165,0 0,14.52756 17.7165,0 0,21.83796 -17.7165,0 0,14.527562 17.7165,0 0,21.83796 -17.7165,0 0,14.52756 17.7165,0 0,21.83796 -17.7165,0 0,14.52756 17.7165,0 0,21.8379596 -17.7165,0 0,14.5275604 17.7165,0 0,21.83796 -17.7165,0 0,14.52756 17.7165,0 0,21.83796 -17.7165,0 0,14.52756 17.7165,0 0,21.837958 -17.7165,0 0,14.52756 17.7165,0 0,21.83796 -17.7165,0 0,14.52756 17.7165,0 0,21.83796 -17.7165,0 0,14.52756 17.7165,0 0,21.83796 -17.7165,0 0,14.52756 17.7165,0 0,21.83796 -17.7165,0 0,14.52756 17.7165,0 0,21.83796 -17.7165,0 0,14.52756 17.7165,0 0,21.83796 -17.7165,0 0,14.52756 17.7165,0 0,20.24347"
       style="fill:none;stroke:#000000"
       inkscape:label="part" />
    <path
       inkscape:connector-curvature="0"
       id="path4161"
       d="m 1136.0335,366.702 -19.9219,0 0,-17.71653 -14.5277,0 0,17.71653 -21.5164,0 0,-17.71653 -14.5276,0 0,17.71653 -21.5164,0 0,-17.71653 -14.5276,0 0,17.71653 -21.5164,0 0,-17.71653 -14.52757,0 0,17.71653 -21.5164,0 0,-17.71653 -14.5275,0 0,17.71653 -21.5165,0 0,-17.71653 -14.5275,0 0,17.71653 -21.5165,0 0,-17.71653 -14.5275,0 0,17.71653 -21.5164,0 0,-17.71653 -14.5276,0 0,17.71653 -21.5164,0 0,-17.71653 -14.5276,0 0,17.71653 -21.5164,0 0,-17.71653 -14.5275,0 0,17.71653 -21.51645,0 0,-17.71653 -14.52756,0 0,17.71653 -21.51643,0 0,-17.71653 -14.52756,0 0,17.71653 -21.51643,0 0,-17.71653 -14.52756,0 0,17.71653 -21.51642,0 0,-17.71653 -14.52756,0 0,17.71653 -21.51643,0 0,-17.71653 -14.52756,0 0,17.71653 -21.51642,0 0,-17.71653 -14.52756,0 0,17.71653 -21.51643,0 0,-17.71653 -14.52756,0 0,17.71653 -21.51643,0 0,-17.71653 -14.52755,0 0,17.71653 -21.51643,0 0,-17.71653 -14.52756,0 0,17.71653 -21.51643,0 0,-17.71653 -14.52756,0 0,17.71653 -21.51642,0 0,-17.71653 -14.52756,0 0,17.71653 -21.51643,0 0,-17.71653 -14.52756,0 0,17.71653 -21.51643,0 0,-17.71653 -14.52755,0 0,17.71653 -21.51643,0 0,-17.71653 -14.52756,0 0,17.71653 -21.51643,0 0,-17.71653 -14.52756,0 0,17.71653 -21.51642,0 0,-17.71653 -14.52756,0 0,17.71653 -21.51643,0 0,-17.71653 -14.52756,0 0,17.71653 -21.51642,0 0,-17.71653 -14.52756,0 0,17.71653 -19.92194,0"
       style="fill:none;stroke:#000000"
       inkscape:label="part" />
    <path
       inkscape:connector-curvature="0"
       id="path4163"
       d="m 108.47442,366.702 0,-20.24347 17.71653,0 0,-14.52756 -17.71653,0 0,-21.83796 17.71653,0 0,-14.52756 -17.71653,0 0,-21.83796 17.71653,0 0,-14.52756 -17.71653,0 0,-21.83796 17.71653,0 0,-14.52756 -17.71653,0 0,-21.83796 17.71653,0 0,-14.52756 -17.71653,0 0,-21.83796 17.71653,0 0,-14.52756 -17.71653,0 0,-21.83796 17.71653,0 0,-14.52756 -17.71653,0 0,-21.837958 17.71653,0 0,-14.52756 -17.71653,0 0,-21.83796 17.71653,0 0,-14.52756 -17.71653,0 0,-21.83796 17.71653,0 0,-14.5275604 -17.71653,0 0,-21.8379596 17.71653,0 0,-14.52756 -17.71653,0 0,-21.83796 17.71653,0 0,-14.52756 -17.71653,0 0,-21.83796 17.71653,0 0,-14.527562 -17.71653,0 0,-21.83796 17.71653,0 0,-14.52756 -17.71653,0 0,-21.83796 17.71653,0 0,-14.52756 -17.71653,0 0,-21.83796 17.71653,0 0,-14.52756 -17.71653,0 0,-21.83796 17.71653,0 0,-14.52756 -17.71653,0 0,-21.83796 17.71653,0 0,-14.52756 -17.71653,0 0,-20.24347"
       style="fill:none;stroke:#000000"
       inkscape:label="part" />
    <circle
       style="opacity:1;fill:none;fill-opacity:1;stroke:#000000;stroke-width:0.92121786;stroke-linecap:butt;stroke-linejoin:miter;stroke-miterlimit:4;stroke-dasharray:none;stroke-opacity:1"
       id="path4137"
       cx="217.20473"
       cy="293.03149"
       r="4.1456904" />
    <circle
       style="opacity:1;fill:none;fill-opacity:1;stroke:#000000;stroke-width:0.92121786;stroke-linecap:butt;stroke-linejoin:miter;stroke-miterlimit:4;stroke-dasharray:none;stroke-opacity:1"
       id="path4137-4"
       cx="643.46454"
       cy="293.03149"
       r="4.1456904" />
    <circle
       style="opacity:1;fill:none;fill-opacity:1;stroke:#000000;stroke-width:0.92121786;stroke-linecap:butt;stroke-linejoin:miter;stroke-miterlimit:4;stroke-dasharray:none;stroke-opacity:1"
       id="path4137-6"
       cx="217.20473"
       cy="18.425198"
       r="4.1456904" />
    <circle
       style="opacity:1;fill:none;fill-opacity:1;stroke:#000000;stroke-width:0.92121786;stroke-linecap:butt;stroke-linejoin:miter;stroke-miterlimit:4;stroke-dasharray:none;stroke-opacity:1"
       id="path4137-6-4"
       cx="643.46454"
       cy="18.425198"
       r="4.1456904" />
  </g>
</svg>
