<?xml version="1.0" encoding="UTF-8" standalone="no"?>
<!-- Created with Inkscape (http://www.inkscape.org/) -->

<svg
   xmlns:dc="http://purl.org/dc/elements/1.1/"
   xmlns:cc="http://creativecommons.org/ns#"
   xmlns:rdf="http://www.w3.org/1999/02/22-rdf-syntax-ns#"
   xmlns:svg="http://www.w3.org/2000/svg"
   xmlns="http://www.w3.org/2000/svg"
   xmlns:sodipodi="http://sodipodi.sourceforge.net/DTD/sodipodi-0.dtd"
   xmlns:inkscape="http://www.inkscape.org/namespaces/inkscape"
   width="594mm"
   height="420mm"
   viewBox="0 0 2104.7244 1488.189"
   id="svg5363"
   version="1.1"
   inkscape:version="0.91 r13725"
   sodipodi:docname="Side1.svg">
  <defs
     id="defs5365" />
  <sodipodi:namedview
     id="base"
     pagecolor="#ffffff"
     bordercolor="#666666"
     borderopacity="1.0"
     inkscape:pageopacity="0.0"
     inkscape:pageshadow="2"
     inkscape:zoom="0.24748737"
     inkscape:cx="576.94022"
     inkscape:cy="351.27624"
     inkscape:document-units="px"
     inkscape:current-layer="layer1"
     showgrid="false"
     inkscape:window-width="1600"
     inkscape:window-height="837"
     inkscape:window-x="-8"
     inkscape:window-y="-8"
     inkscape:window-maximized="1" />
  <metadata
     id="metadata5368">
    <rdf:RDF>
      <cc:Work
         rdf:about="">
        <dc:format>image/svg+xml</dc:format>
        <dc:type
           rdf:resource="http://purl.org/dc/dcmitype/StillImage" />
        <dc:title />
      </cc:Work>
    </rdf:RDF>
  </metadata>
  <g
     inkscape:label="Layer 1"
     inkscape:groupmode="layer"
     id="layer1"
     transform="translate(0,435.82677)">
    <path
       inkscape:connector-curvature="0"
       id="path4181"
       d="m 112.51504,-333.87838 16.73296,0 0,-17.71653 20.90551,0 0,17.71653 15.13848,0 0,-17.71653 20.90551,0 0,17.71653 15.13847,0 0,-17.71653 20.90551,0 0,17.71653 15.13848,0 0,-17.71653 20.90551,0 0,17.71653 15.13847,0 0,-17.71653 20.90552,0 0,17.71653 15.13847,0 0,-17.71653 20.90551,0 0,17.71653 15.13848,0 0,-17.71653 20.90551,0 0,17.71653 15.13847,0 0,-17.71653 20.90551,0 0,17.71653 15.13848,0 0,-17.71653 20.90551,0 0,17.71653 15.13847,0 0,-17.71653 20.90551,0 0,17.71653 15.13848,0 0,-17.71653 20.90551,0 0,17.71653 15.13847,0 0,-17.71653 20.90552,0 0,17.71653 15.13847,0 0,-17.71653 20.90551,0 0,17.71653 15.13848,0 0,-17.71653 20.90551,0 0,17.71653 15.13844,0 0,-17.71653 20.9055,0 0,17.71653 15.1385,0 0,-17.71653 20.9055,0 0,17.71653 15.1385,0 0,-17.71653 20.9055,0 0,17.71653 15.1385,0 0,-17.71653 20.9055,0 0,17.71653 15.1385,0 0,-17.71653 20.9055,0 0,17.71653 15.1384,0 0,-17.71653 20.9055,0 0,17.71653 15.1385,0 0,-17.71653 20.9055,0 0,17.71653 15.1385,0 0,-17.71653 20.9055,0 0,17.71653 15.1385,0 0,-17.71653 20.9055,0 0,17.71653 15.1385,0 0,-17.71653 20.9055,0 0,17.71653 15.1385,0 0,-17.71653 20.90553,0 0,17.71653 15.1384,0 0,-17.71653 20.9056,0 0,17.71653 15.1384,0 0,-17.71653 20.9055,0 0,17.71653 15.1385,0 0,-17.71653 20.9055,0 0,17.71653 16.733,0"
       style="fill:none;stroke:#000000"
       inkscape:label="part" />
    <path
       inkscape:connector-curvature="0"
       id="path4183"
       d="m 1140.0741,-333.87838 0,4.12543 -17.7165,0 0,14.52756 17.7165,0 0,23.43644 -17.7165,0 0,14.52756 17.7165,0 0,23.43645 -17.7165,0 0,14.52756 17.7165,0 0,23.43644 -17.7165,0 0,14.52756 17.7165,0 0,23.43645 -17.7165,0 0,14.52756 17.7165,0 0,23.43644 -17.7165,0 0,14.52756 17.7165,0 0,4.12542"
       style="fill:none;stroke:#000000"
       inkscape:label="part" />
    <path
       inkscape:connector-curvature="0"
       id="path4185"
       d="m 1140.0741,-121.27995 -16.733,0 0,17.71654 -20.9055,0 0,-17.71654 -15.1385,0 0,17.71654 -20.9055,0 0,-17.71654 -15.1384,0 0,17.71654 -20.9056,0 0,-17.71654 -15.1384,0 0,17.71654 -20.90553,0 0,-17.71654 -15.1385,0 0,17.71654 -20.9055,0 0,-17.71654 -15.1385,0 0,17.71654 -20.9055,0 0,-17.71654 -15.1385,0 0,17.71654 -20.9055,0 0,-17.71654 -15.1385,0 0,17.71654 -20.9055,0 0,-17.71654 -15.1385,0 0,17.71654 -20.9055,0 0,-17.71654 -15.1384,0 0,17.71654 -20.9055,0 0,-17.71654 -15.1385,0 0,17.71654 -20.9055,0 0,-17.71654 -15.1385,0 0,17.71654 -20.9055,0 0,-17.71654 -15.1385,0 0,17.71654 -20.9055,0 0,-17.71654 -15.1385,0 0,17.71654 -20.9055,0 0,-17.71654 -15.13844,0 0,17.71654 -20.90551,0 0,-17.71654 -15.13848,0 0,17.71654 -20.90551,0 0,-17.71654 -15.13847,0 0,17.71654 -20.90552,0 0,-17.71654 -15.13847,0 0,17.71654 -20.90551,0 0,-17.71654 -15.13848,0 0,17.71654 -20.90551,0 0,-17.71654 -15.13847,0 0,17.71654 -20.90551,0 0,-17.71654 -15.13848,0 0,17.71654 -20.90551,0 0,-17.71654 -15.13847,0 0,17.71654 -20.90551,0 0,-17.71654 -15.13848,0 0,17.71654 -20.90551,0 0,-17.71654 -15.13847,0 0,17.71654 -20.90552,0 0,-17.71654 -15.13847,0 0,17.71654 -20.90551,0 0,-17.71654 -15.13848,0 0,17.71654 -20.90551,0 0,-17.71654 -15.13847,0 0,17.71654 -20.90551,0 0,-17.71654 -15.13848,0 0,17.71654 -20.90551,0 0,-17.71654 -16.73296,0"
       style="fill:none;stroke:#000000"
       inkscape:label="part" />
    <path
       inkscape:connector-curvature="0"
       id="path4187"
       d="m 112.51504,-121.27995 0,-4.12542 17.71653,0 0,-14.52756 -17.71653,0 0,-23.43644 17.71653,0 0,-14.52756 -17.71653,0 0,-23.43645 17.71653,0 0,-14.52756 -17.71653,0 0,-23.43644 17.71653,0 0,-14.52756 -17.71653,0 0,-23.43645 17.71653,0 0,-14.52756 -17.71653,0 0,-23.43644 17.71653,0 0,-14.52756 -17.71653,0 0,-4.12543"
       style="fill:none;stroke:#000000"
       inkscape:label="part" />
  </g>
</svg>
