<?xml version="1.0" encoding="UTF-8" standalone="no"?>
<!-- Created with Inkscape (http://www.inkscape.org/) -->

<svg
   xmlns:dc="http://purl.org/dc/elements/1.1/"
   xmlns:cc="http://creativecommons.org/ns#"
   xmlns:rdf="http://www.w3.org/1999/02/22-rdf-syntax-ns#"
   xmlns:svg="http://www.w3.org/2000/svg"
   xmlns="http://www.w3.org/2000/svg"
   xmlns:sodipodi="http://sodipodi.sourceforge.net/DTD/sodipodi-0.dtd"
   xmlns:inkscape="http://www.inkscape.org/namespaces/inkscape"
   width="594mm"
   height="420mm"
   viewBox="0 0 2104.7244 1488.189"
   id="svg5363"
   version="1.1"
   inkscape:version="0.91 r13725"
   sodipodi:docname="Side3.svg">
  <defs
     id="defs5365" />
  <sodipodi:namedview
     id="base"
     pagecolor="#ffffff"
     bordercolor="#666666"
     borderopacity="1.0"
     inkscape:pageopacity="0.0"
     inkscape:pageshadow="2"
     inkscape:zoom="0.24748737"
     inkscape:cx="541.25975"
     inkscape:cy="351.27624"
     inkscape:document-units="px"
     inkscape:current-layer="layer1"
     showgrid="false"
     inkscape:window-width="1600"
     inkscape:window-height="837"
     inkscape:window-x="-8"
     inkscape:window-y="-8"
     inkscape:window-maximized="1" />
  <metadata
     id="metadata5368">
    <rdf:RDF>
      <cc:Work
         rdf:about="">
        <dc:format>image/svg+xml</dc:format>
        <dc:type
           rdf:resource="http://purl.org/dc/dcmitype/StillImage" />
        <dc:title />
      </cc:Work>
    </rdf:RDF>
  </metadata>
  <g
     inkscape:label="Layer 1"
     inkscape:groupmode="layer"
     id="layer1"
     transform="translate(0,435.82677)">
    <path
       inkscape:connector-curvature="0"
       id="path4165"
       d="m 146.70561,-325.17531 0.9364,0 0,-17.71653 20.9056,0 0,17.71653 17.0584,0 0,-17.71653 20.9056,0 0,17.71653 17.0585,0 0,-17.71653 20.9055,0 0,17.71653 17.0585,0 0,-17.71653 20.9055,0 0,17.71653 17.0585,0 0,-17.71653 20.9055,0 0,17.71653 17.0585,0 0,-17.71653 20.9055,0 0,17.71653 0.9364,0"
       style="fill:none;stroke:#000000"
       inkscape:label="part" />
    <path
       inkscape:connector-curvature="0"
       id="path4167"
       d="m 359.30401,-325.17531 0,-0.66204 17.7166,0 0,20.90552 -17.7166,0 0,15.46 17.7166,0 0,20.90552 -17.7166,0 0,15.46 17.7166,0 0,20.90552 -17.7166,0 0,15.46 17.7166,0 0,20.90552 -17.7166,0 0,15.46 17.7166,0 0,20.90552 -17.7166,0 0,15.46 17.7166,0 0,20.90552 -17.7166,0 0,15.46 17.7166,0 0,20.905523 -17.7166,0 0,15.46 17.7166,0 0,20.90552 -17.7166,0 0,15.460009 17.7166,0 0,20.905511 -17.7166,0 0,15.4600099 17.7166,0 0,20.9055101 -17.7166,0 0,15.46001 17.7166,0 0,20.90551 -17.7166,0 0,15.460005 17.7166,0 0,20.90551 -17.7166,0 0,15.460012 17.7166,0 0,20.90551 -17.7166,0 0,15.46001 17.7166,0 0,20.90555 -17.7166,0 0,15.46 17.7166,0 0,20.9055 -17.7166,0 0,15.46 17.7166,0 0,20.9055 -17.7166,0 0,15.46 17.7166,0 0,20.9055 -17.7166,0 0,15.46 17.7166,0 0,20.9055 -17.7166,0 0,-0.662"
       style="fill:none;stroke:#000000"
       inkscape:label="part" />
    <path
       inkscape:connector-curvature="0"
       id="path4169"
       d="m 359.30401,312.61997 -0.9364,0 0,17.7165 -20.9055,0 0,-17.7165 -17.0585,0 0,17.7165 -20.9055,0 0,-17.7165 -17.0585,0 0,17.7165 -20.9055,0 0,-17.7165 -17.0585,0 0,17.7165 -20.9055,0 0,-17.7165 -17.0585,0 0,17.7165 -20.9056,0 0,-17.7165 -17.0584,0 0,17.7165 -20.9056,0 0,-17.7165 -0.9364,0"
       style="fill:none;stroke:#000000"
       inkscape:label="part" />
    <path
       inkscape:connector-curvature="0"
       id="path4171"
       d="m 146.70561,312.61997 0,0.662 -17.7165,0 0,-20.9055 17.7165,0 0,-15.46 -17.7165,0 0,-20.9055 17.7165,0 0,-15.46 -17.7165,0 0,-20.9055 17.7165,0 0,-15.46 -17.7165,0 0,-20.9055 17.7165,0 0,-15.46 -17.7165,0 0,-20.90555 17.7165,0 0,-15.46001 -17.7165,0 0,-20.90551 17.7165,0 0,-15.460012 -17.7165,0 0,-20.90551 17.7165,0 0,-15.460005 -17.7165,0 0,-20.90551 17.7165,0 0,-15.46001 -17.7165,0 0,-20.9055101 17.7165,0 0,-15.4600099 -17.7165,0 0,-20.905511 17.7165,0 0,-15.460009 -17.7165,0 0,-20.90552 17.7165,0 0,-15.46 -17.7165,0 0,-20.905523 17.7165,0 0,-15.46 -17.7165,0 0,-20.90552 17.7165,0 0,-15.46 -17.7165,0 0,-20.90552 17.7165,0 0,-15.46 -17.7165,0 0,-20.90552 17.7165,0 0,-15.46 -17.7165,0 0,-20.90552 17.7165,0 0,-15.46 -17.7165,0 0,-20.90552 17.7165,0 0,-15.46 -17.7165,0 0,-20.90552 17.7165,0 0,0.66204"
       style="fill:none;stroke:#000000"
       inkscape:label="part" />
  </g>
</svg>
