<?xml version="1.0" encoding="UTF-8" standalone="no"?>
<!-- Created with Inkscape (http://www.inkscape.org/) -->

<svg
   xmlns:dc="http://purl.org/dc/elements/1.1/"
   xmlns:cc="http://creativecommons.org/ns#"
   xmlns:rdf="http://www.w3.org/1999/02/22-rdf-syntax-ns#"
   xmlns:svg="http://www.w3.org/2000/svg"
   xmlns="http://www.w3.org/2000/svg"
   xmlns:sodipodi="http://sodipodi.sourceforge.net/DTD/sodipodi-0.dtd"
   xmlns:inkscape="http://www.inkscape.org/namespaces/inkscape"
   width="594mm"
   height="420mm"
   viewBox="0 0 2104.7244 1488.189"
   id="svg4219"
   version="1.1"
   inkscape:version="0.91 r13725"
   sodipodi:docname="Top.svg">
  <defs
     id="defs4221" />
  <sodipodi:namedview
     id="base"
     pagecolor="#ffffff"
     bordercolor="#666666"
     borderopacity="1.0"
     inkscape:pageopacity="0.0"
     inkscape:pageshadow="2"
     inkscape:zoom="0.98994949"
     inkscape:cx="928.90933"
     inkscape:cy="993.55515"
     inkscape:document-units="px"
     inkscape:current-layer="layer1"
     showgrid="false"
     inkscape:window-width="1600"
     inkscape:window-height="837"
     inkscape:window-x="-8"
     inkscape:window-y="-8"
     inkscape:window-maximized="1" />
  <metadata
     id="metadata4224">
    <rdf:RDF>
      <cc:Work
         rdf:about="">
        <dc:format>image/svg+xml</dc:format>
        <dc:type
           rdf:resource="http://purl.org/dc/dcmitype/StillImage" />
        <dc:title />
      </cc:Work>
    </rdf:RDF>
  </metadata>
  <g
     inkscape:label="Layer 1"
     inkscape:groupmode="layer"
     id="layer1"
     transform="translate(0,435.82677)">
    <path
       inkscape:connector-curvature="0"
       id="path4173"
       d="m 117.649,-324.25197 19.922,0 0,17.71653 14.5275,0 0,-17.71653 21.5165,0 0,17.71653 14.5275,0 0,-17.71653 21.5164,0 0,17.71653 14.5276,0 0,-17.71653 21.5164,0 0,17.71653 14.5276,0 0,-17.71653 21.5164,0 0,17.71653 14.5276,0 0,-17.71653 21.5164,0 0,17.71653 14.5276,0 0,-17.71653 21.5164,0 0,17.71653 14.5275,0 0,-17.71653 21.5165,0 0,17.71653 14.5275,0 0,-17.71653 21.5165,0 0,17.71653 14.5275,0 0,-17.71653 21.5164,0 0,17.71653 14.5276,0 0,-17.71653 21.5164,0 0,17.71653 14.5276,0 0,-17.71653 21.5164,0 0,17.71653 14.5276,0 0,-17.71653 21.5164,0 0,17.71653 14.5276,0 0,-17.71653 21.5164,0 0,17.71653 14.5275,0 0,-17.71653 21.5165,0 0,17.71653 14.5275,0 0,-17.71653 21.5165,0 0,17.71653 14.5275,0 0,-17.71653 21.5164,0 0,17.71653 14.5276,0 0,-17.71653 21.5164,0 0,17.71653 14.5276,0 0,-17.71653 21.5164,0 0,17.71653 14.5276,0 0,-17.71653 21.5164,0 0,17.71653 14.5276,0 0,-17.71653 21.5164,0 0,17.71653 14.52747,0 0,-17.71653 21.5165,0 0,17.71653 14.5275,0 0,-17.71653 21.5165,0 0,17.71653 14.5275,0 0,-17.71653 21.5164,0 0,17.71653 14.5276,0 0,-17.71653 21.51643,0 0,17.71653 14.5276,0 0,-17.71653 21.5164,0 0,17.71653 14.5276,0 0,-17.71653 21.5164,0 0,17.71653 14.5276,0 0,-17.71653 21.5164,0 0,17.71653 14.5276,0 0,-17.71653 19.922,0"
       style="fill:none;stroke:#000000"
       inkscape:label="part" />
    <path
       inkscape:connector-curvature="0"
       id="path4175"
       d="m 1145.2082,-324.25197 0,20.24347 -17.7165,0 0,14.52756 17.7165,0 0,21.83796 -17.7165,0 0,14.52756 17.7165,0 0,21.83796 -17.7165,0 0,14.52756 17.7165,0 0,21.83797 -17.7165,0 0,14.52756 17.7165,0 0,21.83796 -17.7165,0 0,14.52756 17.7165,0 0,21.83796 -17.7165,0 0,14.52756 17.7165,0 0,21.837957 -17.7165,0 0,14.52756 17.7165,0 0,21.83796 -17.7165,0 0,14.52756 17.7165,0 0,21.83796 -17.7165,0 0,14.5275599 17.7165,0 0,21.8379561 -17.7165,0 0,14.52756 17.7165,0 0,21.83796 -17.7165,0 0,14.52756 17.7165,0 0,21.83796 -17.7165,0 0,14.527557 17.7165,0 0,21.83796 -17.7165,0 0,14.52756 17.7165,0 0,21.83796 -17.7165,0 0,14.52756 17.7165,0 0,21.83796 -17.7165,0 0,14.52756 17.7165,0 0,21.83796 -17.7165,0 0,14.52756 17.7165,0 0,21.83796 -17.7165,0 0,14.52756 17.7165,0 0,21.83796 -17.7165,0 0,14.52756 17.7165,0 0,20.24347"
       style="fill:none;stroke:#000000"
       inkscape:label="part" />
    <path
       inkscape:connector-curvature="0"
       id="path4177"
       d="m 1145.2082,348.97637 -19.922,0 0,-17.71653 -14.5276,0 0,17.71653 -21.5164,0 0,-17.71653 -14.5276,0 0,17.71653 -21.5164,0 0,-17.71653 -14.5276,0 0,17.71653 -21.5164,0 0,-17.71653 -14.5276,0 0,17.71653 -21.51643,0 0,-17.71653 -14.5276,0 0,17.71653 -21.5164,0 0,-17.71653 -14.5275,0 0,17.71653 -21.5165,0 0,-17.71653 -14.5275,0 0,17.71653 -21.5165,0 0,-17.71653 -14.52747,0 0,17.71653 -21.5164,0 0,-17.71653 -14.5276,0 0,17.71653 -21.5164,0 0,-17.71653 -14.5276,0 0,17.71653 -21.5164,0 0,-17.71653 -14.5276,0 0,17.71653 -21.5164,0 0,-17.71653 -14.5276,0 0,17.71653 -21.5164,0 0,-17.71653 -14.5275,0 0,17.71653 -21.5165,0 0,-17.71653 -14.5275,0 0,17.71653 -21.5165,0 0,-17.71653 -14.5275,0 0,17.71653 -21.5164,0 0,-17.71653 -14.5276,0 0,17.71653 -21.5164,0 0,-17.71653 -14.5276,0 0,17.71653 -21.5164,0 0,-17.71653 -14.5276,0 0,17.71653 -21.5164,0 0,-17.71653 -14.5276,0 0,17.71653 -21.5164,0 0,-17.71653 -14.5275,0 0,17.71653 -21.5165,0 0,-17.71653 -14.5275,0 0,17.71653 -21.5165,0 0,-17.71653 -14.5275,0 0,17.71653 -21.5164,0 0,-17.71653 -14.5276,0 0,17.71653 -21.5164,0 0,-17.71653 -14.5276,0 0,17.71653 -21.5164,0 0,-17.71653 -14.5276,0 0,17.71653 -21.5164,0 0,-17.71653 -14.5276,0 0,17.71653 -21.5164,0 0,-17.71653 -14.5275,0 0,17.71653 -21.5165,0 0,-17.71653 -14.5275,0 0,17.71653 -19.922,0"
       style="fill:none;stroke:#000000"
       inkscape:label="part" />
    <path
       inkscape:connector-curvature="0"
       id="path4179"
       d="m 117.649,348.97637 0,-20.24347 17.7166,0 0,-14.52756 -17.7166,0 0,-21.83796 17.7166,0 0,-14.52756 -17.7166,0 0,-21.83796 17.7166,0 0,-14.52756 -17.7166,0 0,-21.83796 17.7166,0 0,-14.52756 -17.7166,0 0,-21.83796 17.7166,0 0,-14.52756 -17.7166,0 0,-21.83796 17.7166,0 0,-14.52756 -17.7166,0 0,-21.83796 17.7166,0 0,-14.527557 -17.7166,0 0,-21.83796 17.7166,0 0,-14.52756 -17.7166,0 0,-21.83796 17.7166,0 0,-14.52756 -17.7166,0 0,-21.8379561 17.7166,0 0,-14.5275599 -17.7166,0 0,-21.83796 17.7166,0 0,-14.52756 -17.7166,0 0,-21.83796 17.7166,0 0,-14.52756 -17.7166,0 0,-21.837957 17.7166,0 0,-14.52756 -17.7166,0 0,-21.83796 17.7166,0 0,-14.52756 -17.7166,0 0,-21.83796 17.7166,0 0,-14.52756 -17.7166,0 0,-21.83797 17.7166,0 0,-14.52756 -17.7166,0 0,-21.83796 17.7166,0 0,-14.52756 -17.7166,0 0,-21.83796 17.7166,0 0,-14.52756 -17.7166,0 0,-20.24347"
       style="fill:none;stroke:#000000"
       inkscape:label="part" />
    <ellipse
       style="opacity:1;fill:none;fill-opacity:1;stroke:none;stroke-width:5;stroke-linecap:butt;stroke-linejoin:miter;stroke-miterlimit:4;stroke-dasharray:none;stroke-opacity:1"
       id="path4137"
       cx="1182.8572"
       cy="638.07654"
       rx="57.142857"
       ry="34.285713" />
  </g>
</svg>
