<?xml version="1.0" encoding="UTF-8" standalone="no"?>
<!-- Created with Inkscape (http://www.inkscape.org/) -->

<svg
   xmlns:dc="http://purl.org/dc/elements/1.1/"
   xmlns:cc="http://creativecommons.org/ns#"
   xmlns:rdf="http://www.w3.org/1999/02/22-rdf-syntax-ns#"
   xmlns:svg="http://www.w3.org/2000/svg"
   xmlns="http://www.w3.org/2000/svg"
   xmlns:sodipodi="http://sodipodi.sourceforge.net/DTD/sodipodi-0.dtd"
   xmlns:inkscape="http://www.inkscape.org/namespaces/inkscape"
   width="210mm"
   height="297mm"
   viewBox="0 0 744.09448819 1052.3622047"
   id="svg4136"
   version="1.1"
   inkscape:version="0.91 r13725"
   sodipodi:docname="Arduino-Backplane.svg">
  <defs
     id="defs4138">
    <marker
       orient="auto"
       id="DistanceX"
       style="overflow:visible"
       refX="0.0"
       refY="0.0">
      <path
         id="path4691"
         d="M 3,-3 L -3,3 M 0,-5 L  0,5"
         style="stroke:#000000; stroke-width:0.5" />
    </marker>
    <pattern
       id="Hatch"
       x="0"
       y="0"
       patternUnits="userSpaceOnUse"
       width="8"
       height="8">
      <path
         id="path4694"
         d="M8 4 l-4,4"
         stroke-width="0.25"
         stroke="#000000"
         linecap="square" />
      <path
         id="path4696"
         d="M6 2 l-4,4"
         stroke-width="0.25"
         stroke="#000000"
         linecap="square" />
      <path
         id="path4698"
         d="M4 0 l-4,4"
         stroke-width="0.25"
         stroke="#000000"
         linecap="square" />
    </pattern>
    <symbol
       id="*Model_Space" />
    <symbol
       id="*Paper_Space" />
    <symbol
       id="*Paper_Space0" />
  </defs>
  <sodipodi:namedview
     id="base"
     pagecolor="#ffffff"
     bordercolor="#666666"
     borderopacity="1.0"
     inkscape:pageopacity="0.0"
     inkscape:pageshadow="2"
     inkscape:zoom="1.4"
     inkscape:cx="158.94101"
     inkscape:cy="833.15514"
     inkscape:document-units="px"
     inkscape:current-layer="layer1"
     showgrid="false"
     inkscape:window-width="1600"
     inkscape:window-height="837"
     inkscape:window-x="-8"
     inkscape:window-y="-8"
     inkscape:window-maximized="1" />
  <metadata
     id="metadata4141">
    <rdf:RDF>
      <cc:Work
         rdf:about="">
        <dc:format>image/svg+xml</dc:format>
        <dc:type
           rdf:resource="http://purl.org/dc/dcmitype/StillImage" />
        <dc:title></dc:title>
      </cc:Work>
    </rdf:RDF>
  </metadata>
  <g
     inkscape:label="Layer 1"
     inkscape:groupmode="layer"
     id="layer1">
    <g
       id="g4703"
       inkscape:label="0"
       transform="translate(370.73683,-743.26771)">
      <path
         id="path4705"
         d="m -29.76378,999.2126 a 5.669291,5.669291 0 1 0 -11.338582,0 5.669291,5.669291 0 1 0 11.338582,0 z"
         style="fill:none;stroke:#000000;stroke-width:0.5;stroke-linecap:round"
         inkscape:connector-curvature="0" />
      <path
         id="path4707"
         d="m -292.14567,910.62992 a 2.6574805,2.6574805 0 1 0 -5.31496,0 2.6574805,2.6574805 0 1 0 5.31496,0 z"
         style="fill:none;stroke:#000000;stroke-width:0.5;stroke-linecap:round"
         inkscape:connector-curvature="0" />
      <path
         id="path4709"
         d="m -292.14567,822.04724 a 2.6574805,2.6574805 0 1 0 -5.31496,0 2.6574805,2.6574805 0 1 0 5.31496,0 z"
         style="fill:none;stroke:#000000;stroke-width:0.5;stroke-linecap:round"
         inkscape:connector-curvature="0" />
      <path
         id="path4711"
         d="m -292.14567,999.2126 a 2.6574805,2.6574805 0 1 0 -5.31496,0 2.6574805,2.6574805 0 1 0 5.31496,0 z"
         style="fill:none;stroke:#000000;stroke-width:0.5;stroke-linecap:round"
         inkscape:connector-curvature="0" />
      <path
         id="path4713"
         d="m -47.834646,814.6063 a 5.669291,5.669291 0 1 0 -11.338582,0 5.669291,5.669291 0 1 0 11.338582,0 z"
         style="fill:none;stroke:#000000;stroke-width:0.5;stroke-linecap:round"
         inkscape:connector-curvature="0" />
      <path
         id="path4715"
         d="m -146.69291,814.6063 a 5.669295,5.669295 0 1 0 -11.33859,0 5.669295,5.669295 0 1 0 11.33859,0 z"
         style="fill:none;stroke:#000000;stroke-width:0.5;stroke-linecap:round"
         inkscape:connector-curvature="0" />
      <path
         id="path4717"
         d="m -200.55118,994.6063 a 5.6692915,5.6692915 0 1 0 -11.33858,0 5.6692915,5.6692915 0 1 0 11.33858,0 z"
         style="fill:none;stroke:#000000;stroke-width:0.5;stroke-linecap:round"
         inkscape:connector-curvature="0" />
      <path
         id="path4719"
         d="M -354.33071,1052.3622 0,1052.3622"
         style="fill:none;stroke:#000000;stroke-width:0.5;stroke-linecap:round"
         inkscape:connector-curvature="0" />
      <path
         id="path4721"
         d="m -354.33071,768.89764 0,283.46456"
         style="fill:none;stroke:#000000;stroke-width:0.5;stroke-linecap:round"
         inkscape:connector-curvature="0" />
      <path
         id="path4723"
         d="m 0,768.89764 -354.33071,0"
         style="fill:none;stroke:#000000;stroke-width:0.5;stroke-linecap:round"
         inkscape:connector-curvature="0" />
      <path
         id="path4725"
         d="M 0,1052.3622 0,768.89764"
         style="fill:none;stroke:#000000;stroke-width:0.5;stroke-linecap:round"
         inkscape:connector-curvature="0" />
    </g>
  </g>
</svg>
